<svg width="24" height="24" viewBox="0 0 24 24" fill="none" xmlns="http://www.w3.org/2000/svg">
<g clip-path="url(#clip0_22620_4356)">
<path d="M18.546 12.7628C18.57 10.8928 19.55 9.16579 21.143 8.18679C20.134 6.74479 18.503 5.86379 16.744 5.80879C14.893 5.61479 13.099 6.91579 12.156 6.91579C11.195 6.91579 9.74299 5.82779 8.17899 5.85979C6.12199 5.92679 4.24999 7.06779 3.24899 8.86679C1.11799 12.5568 2.70699 17.9808 4.74899 20.9638C5.77099 22.4248 6.96399 24.0558 8.52699 23.9988C10.056 23.9358 10.627 23.0238 12.472 23.0238C14.3 23.0238 14.836 23.9988 16.43 23.9618C18.07 23.9348 19.104 22.4948 20.09 21.0198C20.824 19.9788 21.389 18.8288 21.763 17.6118C19.815 16.7878 18.548 14.8788 18.546 12.7628Z" fill="white"/>
<path d="M15.5349 3.847C16.4289 2.773 16.8699 1.393 16.7629 0C15.3969 0.144 14.1339 0.797 13.2279 1.829C12.3329 2.848 11.8789 4.18 11.9669 5.534C13.3519 5.548 14.6669 4.926 15.5349 3.847Z" fill="white"/>
</g>
<defs>
<clipPath id="clip0_22620_4356">
<rect width="24" height="24" fill="white"/>
</clipPath>
</defs>
</svg>
