<svg width="16" height="16" viewBox="0 0 16 16" fill="none" xmlns="http://www.w3.org/2000/svg">
<g clip-path="url(#clip0_22719_4074)">
<path d="M0.884795 8.26696L3.25813 10.0003L2.3568 12.7916C2.21114 13.2246 2.20929 13.693 2.35154 14.127C2.49378 14.5611 2.77249 14.9375 3.14613 15.2003C3.51336 15.4715 3.95839 15.6168 4.4149 15.6145C4.87141 15.6122 5.31496 15.4625 5.67946 15.1876L8.00013 13.4796L10.3215 15.1856C10.688 15.4553 11.1307 15.6017 11.5857 15.6039C12.0408 15.6062 12.4848 15.464 12.854 15.198C13.2232 14.9319 13.4985 14.5557 13.6403 14.1233C13.7822 13.6909 13.7833 13.2247 13.6435 12.7916L12.7421 10.0003L15.1155 8.26696C15.4816 7.9993 15.7537 7.6228 15.893 7.19122C16.0324 6.75965 16.0317 6.29509 15.8912 5.86389C15.7508 5.43269 15.4776 5.05691 15.1108 4.79023C14.744 4.52355 14.3023 4.37961 13.8488 4.37896H10.9335L10.0488 1.62163C9.90968 1.1876 9.63631 0.808971 9.26811 0.540339C8.89991 0.271706 8.45591 0.126953 8.00013 0.126953C7.54435 0.126953 7.10035 0.271706 6.73215 0.540339C6.36395 0.808971 6.09058 1.1876 5.95146 1.62163L5.0668 4.37896H2.15413C1.70062 4.37961 1.25892 4.52355 0.892115 4.79023C0.525307 5.05691 0.252156 5.43269 0.111676 5.86389C-0.0288034 6.29509 -0.0294251 6.75965 0.1099 7.19122C0.249224 7.6228 0.521369 7.9993 0.887462 8.26696H0.884795Z" fill="#FFC14A"/>
</g>
<defs>
<clipPath id="clip0_22719_4074">
<rect width="16" height="16" fill="white"/>
</clipPath>
</defs>
</svg>
