<svg width="24" height="25" viewBox="0 0 24 25" fill="none" xmlns="http://www.w3.org/2000/svg">
<path d="M21 6.02954H18C18 4.43824 17.3679 2.91212 16.2426 1.7869C15.1174 0.661682 13.5913 0.029541 12 0.029541C10.4087 0.029541 8.88258 0.661682 7.75736 1.7869C6.63214 2.91212 6 4.43824 6 6.02954H3C2.20435 6.02954 1.44129 6.34561 0.87868 6.90822C0.31607 7.47083 0 8.23389 0 9.02954L0 19.0295C0.00158786 20.3551 0.528882 21.626 1.46622 22.5633C2.40356 23.5007 3.67441 24.028 5 24.0295H19C20.3256 24.028 21.5964 23.5007 22.5338 22.5633C23.4711 21.626 23.9984 20.3551 24 19.0295V9.02954C24 8.23389 23.6839 7.47083 23.1213 6.90822C22.5587 6.34561 21.7956 6.02954 21 6.02954ZM12 2.02954C13.0609 2.02954 14.0783 2.45097 14.8284 3.20111C15.5786 3.95126 16 4.96868 16 6.02954H8C8 4.96868 8.42143 3.95126 9.17157 3.20111C9.92172 2.45097 10.9391 2.02954 12 2.02954ZM22 19.0295C22 19.8252 21.6839 20.5883 21.1213 21.1509C20.5587 21.7135 19.7956 22.0295 19 22.0295H5C4.20435 22.0295 3.44129 21.7135 2.87868 21.1509C2.31607 20.5883 2 19.8252 2 19.0295V9.02954C2 8.76432 2.10536 8.50997 2.29289 8.32243C2.48043 8.1349 2.73478 8.02954 3 8.02954H6V10.0295C6 10.2948 6.10536 10.5491 6.29289 10.7366C6.48043 10.9242 6.73478 11.0295 7 11.0295C7.26522 11.0295 7.51957 10.9242 7.70711 10.7366C7.89464 10.5491 8 10.2948 8 10.0295V8.02954H16V10.0295C16 10.2948 16.1054 10.5491 16.2929 10.7366C16.4804 10.9242 16.7348 11.0295 17 11.0295C17.2652 11.0295 17.5196 10.9242 17.7071 10.7366C17.8946 10.5491 18 10.2948 18 10.0295V8.02954H21C21.2652 8.02954 21.5196 8.1349 21.7071 8.32243C21.8946 8.50997 22 8.76432 22 9.02954V19.0295Z" fill="#151A2D"/>
</svg>
