<svg width="24" height="25" viewBox="0 0 24 25" fill="none" xmlns="http://www.w3.org/2000/svg">
<g id="Leading Icon" clip-path="url(#clip0_22344_2525)">
<path id="Vector" d="M12 12.0295C13.1867 12.0295 14.3467 11.6776 15.3334 11.0184C16.3201 10.3591 17.0892 9.422 17.5433 8.32564C17.9974 7.22929 18.1162 6.02289 17.8847 4.859C17.6532 3.69512 17.0818 2.62602 16.2426 1.7869C15.4035 0.947788 14.3344 0.376343 13.1705 0.144832C12.0067 -0.0866793 10.8003 0.0321407 9.7039 0.486267C8.60754 0.940392 7.67047 1.70943 7.01118 2.69612C6.35189 3.68282 6 4.84286 6 6.02954C6.00159 7.62036 6.63424 9.14556 7.75911 10.2704C8.88399 11.3953 10.4092 12.028 12 12.0295ZM12 2.02954C12.7911 2.02954 13.5645 2.26414 14.2223 2.70367C14.8801 3.14319 15.3928 3.76791 15.6955 4.49881C15.9983 5.22971 16.0775 6.03398 15.9231 6.80991C15.7688 7.58583 15.3878 8.29856 14.8284 8.85797C14.269 9.41738 13.5563 9.79834 12.7804 9.95269C12.0044 10.107 11.2002 10.0278 10.4693 9.72506C9.73836 9.42231 9.11365 8.90962 8.67412 8.25182C8.2346 7.59403 8 6.82067 8 6.02954C8 4.96868 8.42143 3.95126 9.17157 3.20112C9.92172 2.45097 10.9391 2.02954 12 2.02954Z" fill="white"/>
<path id="Vector_2" d="M12 14.0295C9.61386 14.0322 7.32622 14.9812 5.63896 16.6685C3.95171 18.3558 3.00265 20.6434 3 23.0295C3 23.2948 3.10536 23.5491 3.29289 23.7366C3.48043 23.9242 3.73478 24.0295 4 24.0295C4.26522 24.0295 4.51957 23.9242 4.70711 23.7366C4.89464 23.5491 5 23.2948 5 23.0295C5 21.173 5.7375 19.3925 7.05025 18.0798C8.36301 16.767 10.1435 16.0295 12 16.0295C13.8565 16.0295 15.637 16.767 16.9497 18.0798C18.2625 19.3925 19 21.173 19 23.0295C19 23.2948 19.1054 23.5491 19.2929 23.7366C19.4804 23.9242 19.7348 24.0295 20 24.0295C20.2652 24.0295 20.5196 23.9242 20.7071 23.7366C20.8946 23.5491 21 23.2948 21 23.0295C20.9974 20.6434 20.0483 18.3558 18.361 16.6685C16.6738 14.9812 14.3861 14.0322 12 14.0295Z" fill="white"/>
</g>
<defs>
<clipPath id="clip0_22344_2525">
<rect width="24" height="24" fill="white" transform="translate(0 0.029541)"/>
</clipPath>
</defs>
</svg>
