<svg width="18" height="18" viewBox="0 0 18 18" fill="none" xmlns="http://www.w3.org/2000/svg">
<g id="Leading Icon" clip-path="url(#clip0_22210_7191)">
<path id="Vector" d="M16.8487 7.3995C15.2445 7.3995 13.7572 6.8865 12.5437 6.015V12.3038C12.5437 15.4448 9.9885 17.9993 6.84825 17.9993C5.63475 17.9993 4.509 17.6167 3.58425 16.9672C2.11575 15.936 1.15275 14.2305 1.15275 12.3038C1.15275 9.16275 3.708 6.6075 6.849 6.6075C7.11 6.6075 7.365 6.62925 7.61625 6.663V7.39575V9.822C7.37325 9.74625 7.11675 9.702 6.849 9.702C5.415 9.702 4.248 10.869 4.248 12.3038C4.248 13.3028 4.815 14.1705 5.643 14.6063C6.00375 14.796 6.414 14.9047 6.84975 14.9047C8.25075 14.9047 9.39375 13.7902 9.44625 12.4012L9.4485 0H12.543C12.543 0.2685 12.5692 0.53025 12.6157 0.78525C12.834 1.96425 13.5337 2.976 14.5035 3.60825C15.1785 4.0485 15.984 4.30575 16.848 4.30575L16.8487 7.3995Z" fill="white"/>
</g>
<defs>
<clipPath id="clip0_22210_7191">
<rect width="18" height="18" fill="white"/>
</clipPath>
</defs>
</svg>
