<svg width="24" height="25" viewBox="0 0 24 25" fill="none" xmlns="http://www.w3.org/2000/svg">
<g id="fi-rr-briefcase" clip-path="url(#clip0_22210_4693)">
<path id="Vector" d="M19 4.02954H17.9C17.6679 2.90095 17.0538 1.88689 16.1613 1.15826C15.2687 0.429631 14.1522 0.0309955 13 0.029541L11 0.029541C9.8478 0.0309955 8.73132 0.429631 7.83875 1.15826C6.94618 1.88689 6.3321 2.90095 6.1 4.02954H5C3.67441 4.03113 2.40356 4.55842 1.46622 5.49576C0.528882 6.4331 0.00158786 7.70395 0 9.02954L0 19.0295C0.00158786 20.3551 0.528882 21.626 1.46622 22.5633C2.40356 23.5007 3.67441 24.028 5 24.0295H19C20.3256 24.028 21.5964 23.5007 22.5338 22.5633C23.4711 21.626 23.9984 20.3551 24 19.0295V9.02954C23.9984 7.70395 23.4711 6.4331 22.5338 5.49576C21.5964 4.55842 20.3256 4.03113 19 4.02954ZM11 2.02954H13C13.6183 2.0321 14.2206 2.22562 14.7247 2.58363C15.2288 2.94163 15.6099 3.44663 15.816 4.02954H8.184C8.39008 3.44663 8.77123 2.94163 9.2753 2.58363C9.77937 2.22562 10.3817 2.0321 11 2.02954ZM5 6.02954H19C19.7956 6.02954 20.5587 6.34561 21.1213 6.90822C21.6839 7.47083 22 8.23389 22 9.02954V12.0295H2V9.02954C2 8.23389 2.31607 7.47083 2.87868 6.90822C3.44129 6.34561 4.20435 6.02954 5 6.02954ZM19 22.0295H5C4.20435 22.0295 3.44129 21.7135 2.87868 21.1509C2.31607 20.5883 2 19.8252 2 19.0295V14.0295H11V15.0295C11 15.2948 11.1054 15.5491 11.2929 15.7366C11.4804 15.9242 11.7348 16.0295 12 16.0295C12.2652 16.0295 12.5196 15.9242 12.7071 15.7366C12.8946 15.5491 13 15.2948 13 15.0295V14.0295H22V19.0295C22 19.8252 21.6839 20.5883 21.1213 21.1509C20.5587 21.7135 19.7956 22.0295 19 22.0295Z" fill="#151A2D"/>
</g>
<defs>
<clipPath id="clip0_22210_4693">
<rect width="24" height="24" fill="white" transform="translate(0 0.029541)"/>
</clipPath>
</defs>
</svg>
