<svg width="24" height="18" viewBox="0 0 24 18" fill="none" xmlns="http://www.w3.org/2000/svg">
<path d="M22.9565 7.98633H1.04346C0.467168 7.98633 0 8.4535 0 9.02979C0 9.60608 0.467168 10.0732 1.04346 10.0732H22.9565C23.5328 10.0732 24 9.60608 24 9.02979C24 8.4535 23.5328 7.98633 22.9565 7.98633Z" fill="#7A44FF"/>
<path d="M1.04346 2.76856H22.9565C23.5328 2.76856 24 2.30139 24 1.7251C24 1.14881 23.5328 0.681641 22.9565 0.681641H1.04346C0.467168 0.681641 0 1.14881 0 1.7251C0 2.30139 0.467168 2.76856 1.04346 2.76856Z" fill="#7A44FF"/>
<path d="M22.9565 15.29H1.04346C0.467168 15.29 0 15.7573 0 16.3335C0 16.9098 0.467168 17.377 1.04346 17.377H22.9565C23.5328 17.377 24 16.9098 24 16.3335C24 15.7573 23.5328 15.29 22.9565 15.29Z" fill="#7A44FF"/>
</svg>
